# xmcd
#
# Track frame offsets: 
#        150
#        20224
#        45863
#        76047
#        109767
#        134533
#        160771
#        185020
#        200192
#        224954
#        240243
#
# Disc length: 3386 seconds
#
# Revision: 0
# Processed by: cddbd v1.5.2PL0 Copyright (c) Steve Scherf et al.
# Submitted via: ExactAudioCopy v1.0b1
#
DISCID=9a0d380b
DTITLE=Lambchop - Mr. M
DYEAR=2012
DGENRE=
TTITLE0=If Not I'll Just Die 
TTITLE1=2B2
TTITLE2=Gone Tomorrow
TTITLE3=Mr. Met
TTITLE4=Gar
TTITLE5=Nice Without Mercy
TTITLE6=Buttons
TTITLE7=The Good Life (is Wasted)
TTITLE8=Kind of
TTITLE9=Betty's Overture
TTITLE10=Never my Love
EXTD=
EXTT0=
EXTT1=
EXTT2=
EXTT3=
EXTT4=
EXTT5=
EXTT6=
EXTT7=
EXTT8=
EXTT9=
EXTT10=
PLAYORDER=
